<?xml version="1.0" encoding="UTF-8"?>
<svg version="1.1" xmlns="http://www.w3.org/2000/svg" width="1000" height="1000">
<path d="M0 0 C3.625 0.4375 3.625 0.4375 5.53515625 2.36328125 C8.29877042 6.42863518 10.50360637 10.66331804 12.6875 15.0625 C13.16356689 16.0210791 13.63963379 16.9796582 14.13012695 17.96728516 C31.20523415 52.96971307 42.40144158 90.12325895 48.9375 128.4375 C49.05474426 129.10736938 49.17198853 129.77723877 49.29278564 130.46740723 C53.87497691 156.99691454 55.16335149 183.66559492 55.01172256 210.53111267 C54.99976594 212.79430279 54.99282495 215.05746528 54.98690796 217.32067871 C54.92081442 239.14569754 54.50782311 260.7737653 51.625 282.4375 C51.45626669 283.77513164 51.28831639 285.11286226 51.12109375 286.45068359 C45.75700882 328.79290985 35.18407726 370.68882551 19.625 410.4375 C19.17350586 411.5915332 18.72201172 412.74556641 18.25683594 413.93457031 C-3.43007515 468.69876072 -33.57791094 520.21215022 -71.375 565.4375 C-71.86774414 566.02934082 -72.36048828 566.62118164 -72.86816406 567.23095703 C-78.15180379 573.56812681 -83.52585838 579.81406066 -89.08520508 585.91235352 C-90.49259324 587.464397 -91.89170286 589.02405625 -93.27661133 590.59619141 C-99.45144792 597.58420322 -105.97401092 604.18955307 -112.57739258 610.77026367 C-114.44143244 612.62892108 -116.30003512 614.49289614 -118.15820312 616.35742188 C-124.06154582 622.2644097 -129.98630718 628.05106092 -136.375 633.4375 C-137.56715404 634.48204005 -138.75725852 635.52892391 -139.9453125 636.578125 C-147.67739112 643.3557987 -155.55287366 649.87640072 -163.70166016 656.14648438 C-165.32208677 657.39667637 -166.93353807 658.65757278 -168.54296875 659.921875 C-199.8672407 684.35869834 -233.91329859 704.63675813 -269.375 722.4375 C-270.34759766 722.92847168 -271.32019531 723.41944336 -272.32226562 723.92529297 C-344.78926507 760.29689681 -428.38911707 780.43633214 -509.359375 780.640625 C-510.13719582 780.64345238 -510.91501663 780.64627975 -511.71640778 780.64919281 C-515.84007584 780.66404052 -519.96371029 780.67335829 -524.08740234 780.67773438 C-527.42442898 780.68209661 -530.76119381 780.69592173 -534.09814453 780.71875 C-606.95324943 781.20660295 -675.82634123 762.57383037 -731.375 713.4375 C-732.64537109 712.33341797 -732.64537109 712.33341797 -733.94140625 711.20703125 C-744.66573983 701.75653504 -754.59172273 691.72575526 -763.375 680.4375 C-764.15101563 679.4784375 -764.92703125 678.519375 -765.7265625 677.53125 C-805.80544319 627.14637142 -820.95169216 565.85432641 -814.375 502.4375 C-808.07910921 451.93658601 -785.93696183 404.46096595 -751.6640625 366.94921875 C-750.12239771 365.2575968 -748.59654556 363.55144349 -747.0859375 361.83203125 C-742.47134791 356.59106266 -737.7266423 351.91106628 -732.375 347.4375 C-731.45332031 346.62796875 -730.53164063 345.8184375 -729.58203125 344.984375 C-691.461337 311.64393331 -643.52764276 291.98545651 -593.375 286.4375 C-592.19679688 286.30601562 -591.01859375 286.17453125 -589.8046875 286.0390625 C-530.5693173 280.75783672 -470.2734686 297.1529099 -422.375 332.4375 C-421.80491211 332.85209473 -421.23482422 333.26668945 -420.64746094 333.69384766 C-411.99015895 340.01763831 -404.08643404 346.99958122 -396.375 354.4375 C-395.73095215 355.05431641 -395.0869043 355.67113281 -394.42333984 356.30664062 C-385.24540893 365.13470556 -376.91816949 374.18008902 -369.375 384.4375 C-368.53943092 385.54324725 -367.70349423 386.6487168 -366.8671875 387.75390625 C-350.64899725 409.49129287 -338.34660129 434.56238412 -330.375 460.4375 C-330.10848633 461.29102051 -329.84197266 462.14454102 -329.56738281 463.02392578 C-318.15588668 500.18355644 -312.10964089 545.51623268 -329.1875 581.8125 C-335.89799235 594.39680754 -345.62811955 603.94505541 -359.375 608.4375 C-374.6683392 612.50393701 -391.11518794 610.43217475 -404.8125 602.5 C-418.80130764 593.40727504 -425.89964129 580.55147239 -429.796875 564.5546875 C-431.28992078 556.50434605 -431.52082392 548.61744548 -431.5168457 540.45458984 C-431.52032013 539.28743439 -431.52379456 538.12027893 -431.52737427 536.91775513 C-431.5346971 534.39534348 -431.54006087 531.87292553 -431.54366493 529.35050583 C-431.55087453 525.34663573 -431.56622812 521.34284785 -431.58500671 517.33901978 C-431.59134268 515.96142392 -431.59766832 514.58382802 -431.60398388 513.20623207 C-431.60714969 512.51669292 -431.6103155 511.82715376 -431.61357725 511.11671948 C-431.65544145 501.81073826 -431.68859698 492.50479966 -431.70092773 483.19873047 C-431.70935793 476.90065009 -431.73202598 470.60278671 -431.7702834 464.30481493 C-431.78987182 460.98379785 -431.80026416 457.66338329 -431.79744911 454.34226608 C-431.78215194 430.40460856 -434.01740088 411.48062831 -451.375 393.4375 C-464.22581938 382.13190852 -478.61610448 377.14236604 -495.46484375 377.13110352 C-496.53790771 377.12278 -497.61097168 377.11445648 -498.71655273 377.10588074 C-502.24857276 377.08188192 -505.78040717 377.0730159 -509.3125 377.06640625 C-511.7956548 377.05742432 -514.27880909 377.04830222 -516.76196289 377.03904724 C-521.97022814 377.02257639 -527.17842933 377.01486198 -532.38671875 377.01196289 C-538.99033212 377.00661592 -545.59332304 376.96908023 -552.19676208 376.92321873 C-557.33278464 376.8931325 -562.46866394 376.88623238 -567.60476685 376.88523674 C-570.03470678 376.88108792 -572.46464935 376.86887494 -574.89450073 376.84771919 C-618.20883667 376.50096775 -655.96930987 390.39727466 -687.375 420.4375 C-688.0453125 421.05625 -688.715625 421.675 -689.40625 422.3125 C-716.09755004 447.73278575 -731.23555142 486.3857822 -732.578125 522.796875 C-733.33988151 565.37327827 -717.35981221 603.64456151 -688.375 634.4375 C-687.82714844 635.03820312 -687.27929688 635.63890625 -686.71484375 636.2578125 C-663.50091199 660.78358807 -626.21404966 677.02718591 -592.60961914 678.56396484 C-578.27087922 678.92609501 -564.40040884 678.57277291 -550.375 675.4375 C-549.62847168 675.27121094 -548.88194336 675.10492187 -548.11279297 674.93359375 C-518.83923433 668.1418766 -486.64958906 650.96275089 -468.70703125 626.12890625 C-468.26746094 625.57074219 -467.82789063 625.01257813 -467.375 624.4375 C-466.715 624.4375 -466.055 624.4375 -465.375 624.4375 C-464.18359375 626.0546875 -464.18359375 626.0546875 -462.8125 628.3125 C-448.41913135 650.56632484 -425.21656097 663.97438124 -399.7421875 669.62109375 C-369.67667051 675.61336654 -339.92971852 671.26088128 -314.23828125 654.2109375 C-308.04580173 649.89735291 -302.66208671 644.79832571 -297.375 639.4375 C-296.56546875 638.63828125 -295.7559375 637.8390625 -294.921875 637.015625 C-267.7702872 608.72480974 -259.59812874 567.46185925 -260.28173828 529.65429688 C-261.59624167 484.31425315 -272.44107587 438.19497441 -292.375 397.4375 C-292.80619141 396.54530762 -293.23738281 395.65311523 -293.68164062 394.73388672 C-303.65099366 374.28530314 -315.9393364 355.03616732 -330.375 337.4375 C-331.18839844 336.42171875 -332.00179687 335.4059375 -332.83984375 334.359375 C-339.40007611 326.33434181 -346.63505722 318.96780399 -353.9375 311.625 C-354.42028412 311.13694885 -354.90306824 310.64889771 -355.40048218 310.14605713 C-362.04229836 303.44828761 -368.96277396 297.27619745 -376.375 291.4375 C-376.982229 290.95063721 -377.58945801 290.46377441 -378.21508789 289.9621582 C-441.42060261 239.43556424 -522.975148 217.02779346 -603.16699219 225.078125 C-673.77379764 232.98780671 -749.45554571 266.90225589 -795.76171875 322.515625 C-797.60206108 324.70799408 -799.54934619 326.78024383 -801.5 328.875 C-856.21707389 389.72335891 -881.33178412 472.47135863 -877.17285156 553.36962891 C-875.41611075 578.57057301 -870.41712959 603.49543024 -862.375 627.4375 C-862.10526367 628.26636719 -861.83552734 629.09523438 -861.55761719 629.94921875 C-850.10635924 664.87093273 -831.59260556 697.05497832 -808.375 725.4375 C-807.93140137 725.9855127 -807.48780273 726.53352539 -807.03076172 727.09814453 C-794.99890217 741.88612414 -781.4790193 755.78707701 -766.375 767.4375 C-765.27429027 768.34657586 -764.17684979 769.25961904 -763.08203125 770.17578125 C-708.17188236 815.80417909 -637.68181423 837.09143282 -567.375 841.4375 C-566.48151855 841.49534668 -565.58803711 841.55319336 -564.66748047 841.61279297 C-482.74359738 846.77999278 -399.07449684 834.20575217 -174.72802734 738.70068359 C-172.375 737.4375 -172.375 737.4375 -168.375 737.4375 C-168.7211373 742.58265585 -171.57781612 745.17607755 -175.09765625 748.5859375 C-175.67656113 749.16155426 -176.255466 749.73717102 -176.85191345 750.33023071 C-178.70460778 752.16720408 -180.57097383 753.98959439 -182.4375 755.8125 C-183.66687835 757.03037975 -184.89540325 758.24912164 -186.12304688 759.46875 C-192.042953 765.32822653 -198.03115422 771.03526513 -204.375 776.4375 C-205.9198126 777.8507355 -207.46195325 779.26690409 -209 780.6875 C-214.58633197 785.72199066 -220.46667568 790.31715472 -226.41503906 794.91015625 C-228.43510964 796.48434179 -230.43359708 798.08304157 -232.4296875 799.6875 C-280.55884952 838.14109799 -337.39143924 866.09720584 -396.375 883.4375 C-397.38208008 883.73462891 -398.38916016 884.03175781 -399.42675781 884.33789062 C-453.57683552 900.0937611 -510.14923154 906.65586262 -566.4375 906.6875 C-567.52872162 906.68817474 -568.61994324 906.68884949 -569.74423218 906.68954468 C-628.55200308 906.63219321 -685.94978778 895.46641439 -739.375 870.4375 C-740.66325684 869.83470215 -740.66325684 869.83470215 -741.97753906 869.21972656 C-779.59312047 851.4229532 -812.58533274 826.39310064 -841.9375 797.0625 C-842.81857422 796.19367187 -843.69964844 795.32484375 -844.60742188 794.4296875 C-850.63661629 788.41384185 -856.068727 782.09349339 -861.375 775.4375 C-862.32772507 774.29846762 -863.28407117 773.16244069 -864.24609375 772.03125 C-906.18801253 721.9039702 -931.54110701 658.17685201 -941.625 594.0625 C-941.77614258 593.10279297 -941.92728516 592.14308594 -942.08300781 591.15429688 C-942.56096443 587.91972819 -942.97920311 584.68320936 -943.375 581.4375 C-943.5058046 580.37421982 -943.5058046 580.37421982 -943.63925171 579.28945923 C-945.35815768 564.87337121 -945.71681329 550.54766952 -945.69067383 536.03833008 C-945.68752469 532.40349978 -945.71104091 528.7694956 -945.73632812 525.13476562 C-945.79654146 503.16931198 -944.04010131 481.35509713 -939.625 459.8125 C-939.36750977 458.52947998 -939.11001953 457.24645996 -938.84472656 455.92456055 C-927.4204299 399.92089675 -903.73577886 346.46914122 -868.375 301.4375 C-867.68148437 300.54289062 -866.98796875 299.64828125 -866.2734375 298.7265625 C-852.87763631 281.69239556 -838.30084371 264.69721095 -821.83203125 250.55859375 C-819.93648331 248.92221453 -818.064022 247.26847174 -816.19921875 245.59765625 C-765.81479221 200.75593337 -701.05120011 171.52915555 -634.6875 160.6875 C-632.87354736 160.38936401 -632.87354736 160.38936401 -631.02294922 160.08520508 C-627.14667415 159.4819129 -623.26464373 158.94545638 -619.375 158.4375 C-618.35928736 158.30449226 -618.35928736 158.30449226 -617.32305527 158.16879749 C-600.25023869 156.03510317 -583.14442079 156.12219904 -565.97193623 156.09864616 C-561.79031722 156.09031094 -557.60876208 156.06937202 -553.42718506 156.04943848 C-542.82648707 156.00092281 -532.22576194 155.96833471 -521.625 155.9375 C-510.18469361 155.90419153 -498.74443872 155.86782361 -487.30421042 155.81336927 C-483.16831644 155.7941314 -479.03248958 155.77871662 -474.89655304 155.77302551 C-451.30720471 155.73939687 -427.80565456 155.31844038 -404.5 151.25 C-403.25661865 151.03641846 -402.0132373 150.82283691 -400.73217773 150.6027832 C-342.88960457 140.26419745 -287.46651384 114.44383246 -243.375 75.4375 C-242.51777344 74.67953125 -241.66054688 73.9215625 -240.77734375 73.140625 C-238.2951539 70.92199572 -235.83445828 68.68128271 -233.375 66.4375 C-232.36245685 65.529415 -231.34941282 64.62188828 -230.3359375 63.71484375 C-229.28569737 62.7690735 -228.23621957 61.82245604 -227.1875 60.875 C-226.67541992 60.41375732 -226.16333984 59.95251465 -225.63574219 59.47729492 C-222.65456891 56.74842692 -220.06096872 53.92070246 -217.5625 50.75 C-215.04825809 47.74276947 -214.68020864 47.49253762 -210.5625 46.75 C-207.375 47.4375 -207.375 47.4375 -205.375 50.4375 C-205.39963694 53.25843008 -205.56630759 55.89341655 -205.875 58.6875 C-205.9682959 59.5530249 -206.0615918 60.4185498 -206.15771484 61.31030273 C-211.87285938 109.60535989 -228.24960387 158.23207507 -255.046875 198.97973633 C-256.69193824 201.55840106 -256.69193824 201.55840106 -256.375 205.4375 C-252.34945188 207.06366833 -248.96321406 205.71261655 -245.0234375 204.48046875 C-244.30058563 204.26223953 -243.57773376 204.04401031 -242.83297729 203.81916809 C-240.46804577 203.09996494 -238.10882554 202.36396644 -235.75 201.625 C-234.9415564 201.37451904 -234.13311279 201.12403809 -233.3001709 200.8659668 C-176.19854678 183.14292353 -116.14846092 154.39665827 -77.0546875 107.42578125 C-75.03545311 105.03557124 -72.89125842 102.78150058 -70.75 100.5 C-64.1104078 93.20749783 -58.25582073 85.34529766 -52.375 77.4375 C-51.84503418 76.73238281 -51.31506836 76.02726562 -50.76904297 75.30078125 C-37.06360603 57.03249328 -25.35508681 37.55061 -14.27734375 17.6015625 C-4.80352581 0.62267927 -4.80352581 0.62267927 0 0 Z " fill="#5C2D91" transform="translate(945.375,46.5625)"/>
<path d="M0 0 C2.27494419 -0.00083075 4.5498883 -0.00329789 6.8248291 -0.00730896 C11.54795804 -0.01014242 16.2706062 0.00431106 20.99365234 0.03198242 C27.05209756 0.06637566 33.10970215 0.05992021 39.16819 0.04131985 C43.84526638 0.03077863 48.5221455 0.03965623 53.19920349 0.05470467 C55.43516963 0.05988711 57.67115632 0.05940393 59.90711975 0.05315971 C63.01340673 0.04773022 66.11846271 0.06799851 69.22460938 0.09545898 C70.14709976 0.08893311 71.06959015 0.08240723 72.02003479 0.07568359 C78.07155807 0.16699175 78.07155807 0.16699175 80.78787231 2.10568237 C82.18197924 5.88452888 82.13541034 9.5610047 82.10693359 13.53393555 C82.11481903 14.88373505 82.11481903 14.88373505 82.12286377 16.26080322 C82.1360839 19.24175305 82.12730885 22.22216949 82.1171875 25.203125 C82.11920995 27.28660687 82.12212281 29.37008805 82.12588501 31.4535675 C82.13031299 35.83084826 82.12387047 40.20794563 82.10986328 44.58520508 C82.09290894 50.150467 82.10252152 55.71529045 82.12058067 61.2805357 C82.13152405 65.591875 82.12792197 69.9031139 82.1201973 74.21445656 C82.11821707 76.26301947 82.12057657 78.31159196 82.12763596 80.36014366 C82.20819325 110.35089109 75.98065881 134.69390163 54.71875 156.62890625 C53.91244141 157.54542969 53.91244141 157.54542969 53.08984375 158.48046875 C39.26190583 173.66000963 16.80328199 182.0099117 -3.32421875 183.01171875 C-30.24644405 183.76913726 -53.8126966 176.40416697 -73.71240234 157.71533203 C-90.83938701 141.0113494 -101.09114557 118.56110493 -101.52270508 94.42675781 C-101.61006492 71.57342272 -95.18246221 50.30100503 -80.28125 32.62890625 C-79.63671875 31.82710937 -78.9921875 31.0253125 -78.328125 30.19921875 C-58.18977632 6.25695976 -29.8964692 -0.20002898 0 0 Z " fill="#5C2D91" transform="translate(373.28125,482.37109375)"/>
</svg>
